<?xml version="1.0" standalone="no"?>
<!DOCTYPE svg PUBLIC "-//W3C//DTD SVG 20010904//EN"
 "http://www.w3.org/TR/2001/REC-SVG-20010904/DTD/svg10.dtd">
<svg version="1.0" xmlns="http://www.w3.org/2000/svg"
 width="700.000000pt" height="700.000000pt" viewBox="0 0 700.000000 700.000000"
 preserveAspectRatio="xMidYMid meet">
<metadata>
Created by potrace 1.11, written by Peter Selinger 2001-2013
</metadata>
<g transform="translate(0.000000,700.000000) scale(0.100000,-0.100000)"
fill="#000000" stroke="none">
<path d="M1676 6271 c-2 -3 -4 -1254 -4 -2778 l0 -2771 502 1 501 2 0 1514 0
1515 60 64 c133 143 300 217 535 237 134 12 172 12 238 0 82 -15 122 -30 187
-68 151 -88 278 -234 374 -427 53 -109 88 -225 95 -320 2 -30 4 -243 5 -472
l1 -418 58 26 c65 29 172 64 217 71 17 2 46 8 66 12 58 13 257 10 341 -4 91
-16 181 -43 261 -78 l57 -26 1 22 c1 12 1 211 1 442 0 466 -5 564 -37 744
-106 592 -426 974 -918 1095 -56 14 -115 28 -132 30 -16 2 -50 8 -75 12 -70
11 -303 13 -357 3 -26 -5 -59 -11 -71 -14 -89 -16 -239 -87 -348 -163 -78 -55
-208 -179 -269 -257 -22 -27 -42 -52 -45 -55 -40 -39 -163 -260 -210 -375 -16
-38 -30 -65 -30 -60 -1 6 -2 570 -3 1255 l-2 1245 -497 2 c-274 0 -500 -2
-502 -6z"/>
<path d="M4590 2028 c-148 -18 -271 -79 -381 -189 -63 -62 -85 -93 -122 -170
-55 -115 -70 -176 -70 -289 0 -296 195 -553 483 -636 73 -21 219 -24 304 -7
398 81 627 512 473 890 -86 212 -300 375 -522 399 -82 9 -102 10 -165 2z"/>
</g>
</svg>
