<?xml version="1.0" encoding="utf-8"?>
<!-- Generator: Adobe Illustrator 16.0.3, SVG Export Plug-In . SVG Version: 6.00 Build 0)  -->
<!DOCTYPE svg PUBLIC "-//W3C//DTD SVG 1.1//EN" "http://www.w3.org/Graphics/SVG/1.1/DTD/svg11.dtd">
<svg version="1.1" id="Layer_1" xmlns="http://www.w3.org/2000/svg" xmlns:xlink="http://www.w3.org/1999/xlink" x="0px" y="0px"
	 width="1600px" height="300px" viewBox="0 0 1600 300" style="enable-background:new 0 0 1600 300;" xml:space="preserve">
<g>
	<path style="fill:#FFFFFF;" d="M247.6,162.1l4.05,14.7l36.49-94.27h38.9l-69.56,157.63c-1.52,3.46-3.48,7.22-5.89,11.28
		c-2.41,4.05-5.43,7.81-9.06,11.28c-3.63,3.46-8.05,6.38-13.24,8.74c-5.19,2.36-11.34,3.55-18.44,3.55c-1.69,0-3.25-0.07-4.69-0.19
		c-1.44-0.13-2.83-0.3-4.18-0.51c-1.35-0.21-2.68-0.47-3.99-0.76c-1.31-0.3-2.72-0.66-4.25-1.08l4.31-26.86
		c1.44,0,3.27,0.07,5.51,0.19c2.24,0.13,4.03,0.19,5.38,0.19c2.79,0,5.26-0.84,7.41-2.54c2.15-1.69,3.99-3.55,5.51-5.57
		c1.52-2.03,2.74-3.89,3.67-5.58c0.93-1.69,1.56-2.53,1.9-2.53l8.49-15.97L177.91,82.53h38.52L247.6,162.1z"/>
	<path style="fill:#FFFFFF;" d="M468.08,152.34c0,9.97-1.16,19.22-3.48,27.75c-2.32,8.53-5.75,15.9-10.27,22.11
		c-4.52,6.21-10.12,11.09-16.79,14.64c-6.67,3.55-14.32,5.32-22.93,5.32c-7.35,0-13.81-1.27-19.39-3.8
		c-5.58-2.54-10.43-6.08-14.57-10.64v64.62h-35.23V82.53h32.57l1.27,13.43c4.22-5.07,9.21-9,14.95-11.78
		c5.74-2.79,12.46-4.18,20.15-4.18c8.7,0,16.39,1.67,23.06,5c6.67,3.34,12.29,8.07,16.85,14.19c4.56,6.13,8,13.48,10.33,22.05
		c2.32,8.57,3.48,18.06,3.48,28.45V152.34z M432.85,149.68c0-5.74-0.53-11.13-1.58-16.16c-1.06-5.02-2.7-9.38-4.94-13.05
		s-5.11-6.57-8.61-8.68c-3.51-2.11-7.75-3.17-12.73-3.17c-6.17,0-11.22,1.2-15.14,3.61c-3.93,2.41-6.99,5.81-9.19,10.2v57.27
		c2.2,4.31,5.26,7.75,9.19,10.33c3.93,2.58,9.06,3.87,15.4,3.87c4.98,0,9.23-1.1,12.73-3.3c3.5-2.2,6.35-5.2,8.55-9
		c2.2-3.8,3.8-8.21,4.81-13.24c1.01-5.02,1.52-10.37,1.52-16.03V149.68z"/>
	<path style="fill:#FFFFFF;" d="M567.16,222.16c-10.56,0-20.15-1.73-28.76-5.19c-8.62-3.46-16.01-8.17-22.17-14.13
		c-6.17-5.95-10.92-12.96-14.26-21.03c-3.34-8.07-5.01-16.7-5.01-25.91v-5.07c0-10.47,1.65-20.04,4.94-28.7
		c3.29-8.66,7.9-16.11,13.81-22.36c5.91-6.25,12.92-11.11,21.03-14.57c8.11-3.46,16.93-5.19,26.48-5.19
		c9.88,0,18.69,1.63,26.42,4.88c7.73,3.25,14.28,7.84,19.64,13.75c5.36,5.91,9.44,13.03,12.23,21.35
		c2.79,8.32,4.18,17.51,4.18,27.56v14.95H532.7c0.68,4.65,2.05,8.89,4.12,12.73c2.07,3.85,4.71,7.16,7.92,9.95
		c3.21,2.79,6.88,4.94,11.03,6.46c4.14,1.52,8.66,2.28,13.56,2.28c3.46,0,6.91-0.34,10.33-1.01c3.42-0.68,6.7-1.67,9.82-2.98
		c3.13-1.31,6.04-2.93,8.74-4.88c2.7-1.94,5.07-4.22,7.1-6.84l17.61,19.01c-2.2,3.13-5.05,6.19-8.55,9.19
		c-3.51,3-7.65,5.66-12.42,7.98c-4.77,2.32-10.07,4.2-15.9,5.64C580.21,221.44,573.92,222.16,567.16,222.16z M562.98,108.5
		c-3.97,0-7.6,0.7-10.9,2.09c-3.29,1.39-6.19,3.4-8.68,6.02c-2.49,2.62-4.58,5.74-6.27,9.38c-1.69,3.63-2.96,7.69-3.8,12.16h57.78
		v-2.79c-0.17-3.72-0.89-7.22-2.15-10.52c-1.27-3.29-3.08-6.15-5.45-8.55c-2.37-2.41-5.26-4.31-8.68-5.7
		C571.41,109.2,567.46,108.5,562.98,108.5z"/>
	<path style="fill:#FFFFFF;" d="M754.82,79.99c5.32,0,10.24,0.36,14.76,1.08c4.52,0.72,8.17,1.5,10.96,2.34l-5.2,35.1
		c-4.65-1.1-9.4-1.92-14.25-2.47c-4.86-0.55-9.48-0.82-13.87-0.82c-9.88,0-17.8,1.9-23.76,5.7c-5.96,3.8-10.41,9.25-13.37,16.35
		v82.36h-35.23V82.53h32.82l1.65,22.43c5.58-7.77,12.25-13.87,20.02-18.31C737.12,82.21,745.61,79.99,754.82,79.99z"/>
	<path style="fill:#FFFFFF;" d="M808.55,150.06c0-10.39,1.29-19.89,3.86-28.51c2.58-8.62,6.27-16.01,11.09-22.17
		c4.81-6.16,10.64-10.94,17.49-14.32c6.84-3.38,14.57-5.07,23.19-5.07c8.02,0,14.91,1.35,20.66,4.05
		c5.74,2.71,10.64,6.55,14.7,11.53l1.39-13.05h32.06v132.67c0,9.29-1.58,17.57-4.75,24.83c-3.17,7.27-7.6,13.39-13.3,18.37
		c-5.7,4.99-12.54,8.77-20.53,11.34c-7.98,2.57-16.79,3.86-26.42,3.86c-4.14,0-8.57-0.42-13.3-1.27c-4.73-0.85-9.42-2.15-14.06-3.93
		c-4.65-1.78-9.04-4.04-13.18-6.78c-4.14-2.75-7.69-6.02-10.64-9.82l15.84-21.42c4.47,5.07,9.54,8.93,15.2,11.59
		c5.66,2.66,11.78,3.99,18.37,3.99c9.89,0,17.59-2.64,23.13-7.92c5.53-5.28,8.3-12.78,8.3-22.49v-7.86
		c-4.14,4.56-8.98,8.11-14.51,10.64c-5.53,2.53-11.93,3.8-19.19,3.8c-8.53,0-16.2-1.75-23-5.26c-6.8-3.51-12.61-8.34-17.42-14.51
		c-4.82-6.17-8.51-13.5-11.09-21.98c-2.58-8.49-3.86-17.72-3.86-27.69V150.06z M843.9,152.72c0,5.75,0.57,11.09,1.71,16.03
		c1.14,4.94,2.89,9.25,5.26,12.92c2.37,3.67,5.36,6.57,9,8.68c3.63,2.12,7.94,3.17,12.92,3.17c6.17,0,11.25-1.18,15.27-3.55
		s7.2-5.66,9.57-9.88v-58.03c-2.37-4.31-5.56-7.62-9.57-9.95c-4.01-2.32-9.02-3.48-15.01-3.48c-4.98,0-9.3,1.08-12.92,3.23
		c-3.63,2.15-6.65,5.11-9.06,8.87c-2.41,3.76-4.2,8.15-5.38,13.18c-1.18,5.03-1.77,10.41-1.77,16.16V152.72z"/>
	<path style="fill:#FFFFFF;" d="M963,149.81c0-9.97,1.43-19.2,4.31-27.69c2.87-8.49,7.07-15.86,12.61-22.11
		c5.53-6.25,12.29-11.15,20.27-14.7c7.98-3.55,17.12-5.32,27.43-5.32c10.3,0,19.47,1.77,27.5,5.32c8.03,3.55,14.8,8.45,20.33,14.7
		c5.53,6.25,9.73,13.62,12.61,22.11c2.87,8.49,4.31,17.72,4.31,27.69v2.66c0,10.05-1.43,19.32-4.31,27.81
		c-2.88,8.49-7.06,15.86-12.54,22.11c-5.49,6.25-12.25,11.13-20.27,14.63c-8.03,3.5-17.15,5.26-27.37,5.26
		c-10.3,0-19.49-1.76-27.56-5.26c-8.07-3.5-14.87-8.38-20.4-14.63c-5.53-6.25-9.74-13.62-12.61-22.11
		c-2.87-8.49-4.31-17.76-4.31-27.81V149.81z M998.23,152.47c0,5.75,0.55,11.13,1.64,16.16c1.1,5.03,2.83,9.42,5.2,13.18
		c2.36,3.76,5.42,6.74,9.19,8.93c3.76,2.2,8.3,3.29,13.62,3.29c5.15,0,9.59-1.1,13.3-3.29c3.71-2.2,6.74-5.17,9.06-8.93
		c2.32-3.76,4.03-8.15,5.13-13.18c1.1-5.03,1.65-10.41,1.65-16.16v-2.66c0-5.57-0.55-10.85-1.65-15.84
		c-1.1-4.98-2.81-9.38-5.13-13.18c-2.32-3.8-5.35-6.8-9.06-9c-3.72-2.19-8.23-3.29-13.56-3.29c-5.24,0-9.71,1.1-13.43,3.29
		c-3.72,2.2-6.76,5.2-9.12,9c-2.37,3.8-4.1,8.19-5.2,13.18c-1.1,4.99-1.64,10.26-1.64,15.84V152.47z"/>
	<path style="fill:#FFFFFF;" d="M1130.9,25h76.66v165.99h39.28v28.64H1130.9v-28.64h41.05V53.76h-41.05V25z"/>
	<path style="fill:#FFFFFF;" d="M1288.65,82.53h74.63v108.46h37.12v28.64h-111.76v-28.64h39.03v-79.7h-39.03V82.53z M1325.14,47.43
		c0-2.7,0.48-5.21,1.46-7.54c0.97-2.32,2.34-4.31,4.12-5.96c1.77-1.65,3.9-2.93,6.4-3.86c2.49-0.93,5.26-1.39,8.3-1.39
		c6.25,0,11.21,1.75,14.89,5.26c3.68,3.51,5.51,8,5.51,13.49c0,5.49-1.84,9.99-5.51,13.5c-3.68,3.51-8.64,5.26-14.89,5.26
		c-3.04,0-5.81-0.46-8.3-1.39c-2.49-0.93-4.62-2.22-6.4-3.86c-1.77-1.65-3.15-3.63-4.12-5.96
		C1325.63,52.64,1325.14,50.13,1325.14,47.43z"/>
	<path style="fill:#FFFFFF;" d="M1497.72,125.35l30.15-42.83h37.89l-46,67.28l47.64,69.82h-38.01l-31.55-44.86l-31.3,44.86h-38.14
		l47.64-69.82l-45.87-67.28h37.88L1497.72,125.35z"/>
	<g>
		<g>
			<path style="fill:#FFFFFF;" d="M67.73,219.63H32.59V25.18h35.14V219.63z"/>
		</g>
		<circle style="fill:#FFFFFF;" cx="137.51" cy="196.66" r="22.97"/>
		<path style="fill:#B31B00;" d="M118.1,123.79c1.37,3.49,1.83,7.77,1.83,12.66v26.19c5.26-2.72,11.23-4.26,17.57-4.26
			c6.33,0,12.31,1.54,17.57,4.26v-25.94c0-10.04-1.2-18.63-3.6-25.76c-2.4-7.13-5.75-12.98-10.05-17.53
			c-4.3-4.56-13.85-13.29-35.14-13.29c-21.46,0-35.33,22.75-38.55,33.64c3.16-4.7,9.41-11.16,26.04-11.16
			C105.24,102.6,114.12,113.63,118.1,123.79z"/>
	</g>
</g>
</svg>
